<svg width="19" height="20" viewBox="0 0 19 20" fill="none" xmlns="http://www.w3.org/2000/svg">
<path fill-rule="evenodd" clip-rule="evenodd" d="M4.79074 2.42913L5.34519 2.66563C4.96061 2.89573 4.78687 3.12047 4.83085 3.3347C4.87624 3.55614 5.0832 3.74707 5.44715 3.90226C5.78247 4.04508 6.17753 4.1224 6.65499 4.13876C7.12584 4.15456 7.85213 4.02549 8.81445 3.75401C9.05363 3.68638 9.2411 3.64721 9.37115 3.63724C9.49866 3.62762 9.60119 3.64157 9.69464 3.6813C9.75868 3.70865 9.95473 3.79216 9.46263 4.00185C9.14293 4.13821 8.81198 4.19436 8.47913 4.16886C8.2158 4.14872 7.94889 4.19621 7.79738 4.29016L7.50162 4.47381C7.37242 4.55408 7.34631 4.65663 7.43153 4.74687C7.51646 4.83704 7.70231 4.90281 7.92581 4.9224C8.65583 4.98659 9.37692 4.90446 10.0693 4.67972L10.8178 4.99896C11.0839 5.11223 11.5149 5.11223 11.7808 4.99924C12.0466 4.88563 12.0466 4.70171 11.7808 4.58845L11.0061 4.25821C11.3464 4.04693 11.5254 3.83353 11.5381 3.62247C11.5528 3.37553 11.3486 3.15992 10.9311 2.98192C10.6331 2.85491 10.2931 2.77628 9.92116 2.7481C9.54925 2.71986 9.19656 2.73573 8.87384 2.79477C8.55555 2.85333 8.07091 2.9712 7.43645 3.1446C7.16046 3.21924 6.97299 3.25738 6.87926 3.25793C6.78968 3.25841 6.7091 3.24446 6.64704 3.21793C6.426 3.12391 6.61157 3.00501 6.80643 2.92205C7.04808 2.81896 7.30592 2.77037 7.57283 2.77711C7.84031 2.78405 8.09266 2.72309 8.21658 2.62192L8.38814 2.48226C8.49672 2.39394 8.49095 2.2879 8.37301 2.20171C8.25535 2.11559 8.04178 2.06109 7.80787 2.05759C7.30015 2.05058 6.81058 2.1169 6.31799 2.25944L5.75362 2.01862C5.48755 1.90535 5.05653 1.90535 4.79046 2.01862C4.52488 2.13223 4.52488 2.31587 4.79074 2.42913Z" fill="#2A364A"/>
<path fill-rule="evenodd" clip-rule="evenodd" d="M16.504 5.36137C16.5491 5.17856 16.5722 4.99196 16.5722 4.80296V4.20564C16.5722 3.01223 15.6599 1.92089 14.0031 1.13299C12.4671 0.402474 10.4368 0 8.28611 0C6.1351 0 4.10484 0.402474 2.56901 1.13299C0.912352 1.92089 0 3.01223 0 4.20564V4.80296C0 5.97993 0.887582 7.05732 2.50089 7.84261C2.45607 8.02488 2.42721 8.25175 2.42721 8.39835V8.50735C0.860348 9.28935 0 10.352 0 11.511V12.1083C0 12.9129 0.415326 13.6711 1.19355 14.3216C1.08828 14.5962 1.03325 14.8797 1.03325 15.1697V15.767C1.03325 16.9604 1.9456 18.0518 3.60233 18.8397C5.13837 19.5702 7.1687 19.9726 9.31936 19.9726C11.4704 19.9726 13.5006 19.5702 15.0364 18.8397C16.6931 18.0518 17.6055 16.9604 17.6055 15.767V15.1697C17.6055 14.3651 17.1904 13.6069 16.4125 12.957C16.5178 12.6821 16.5722 12.398 16.5722 12.1083V11.9993C18.139 11.2173 18.9994 10.1546 18.9994 8.99567V8.39835C18.9994 7.22268 18.1138 6.14667 16.504 5.36137ZM1.1578 3.70034C1.39777 3.10433 2.05144 2.52577 3.03113 2.05973C4.42587 1.39636 6.2921 1.03093 8.28611 1.03093C10.2798 1.03093 12.146 1.39636 13.5408 2.05973C14.5204 2.52577 15.1742 3.10433 15.4141 3.70034C14.5664 5.14041 11.6207 6.19065 8.28611 6.19065C4.95119 6.19065 2.00556 5.14069 1.1578 3.70034ZM1.1578 11.0054C1.35294 10.5211 1.82301 10.0483 2.51792 9.63814C2.78568 10.5778 3.64216 11.4245 4.9963 12.0686C6.53234 12.7991 8.5626 13.2012 10.7133 13.2012C10.9236 13.2012 11.1322 13.1964 11.34 13.1889C10.401 13.386 9.3639 13.496 8.28611 13.496C4.95147 13.496 2.00556 12.4458 1.1578 11.0054ZM16.4477 14.6642C15.5996 16.1045 12.6543 17.1548 9.31936 17.1548C6.42263 17.1548 3.8209 16.3617 2.63143 15.2094C4.16009 15.9216 6.16395 16.3139 8.28611 16.3139C10.4368 16.3139 12.4671 15.9118 14.0031 15.181C14.7989 14.8024 15.4224 14.3538 15.8561 13.8577C16.1359 14.1165 16.3366 14.3885 16.4477 14.6642ZM10.7133 10.3834C7.80175 10.3834 5.18707 9.58282 4.00583 8.42117C5.2813 8.80316 6.75253 9.00852 8.28611 9.00852C10.4368 9.00852 12.4671 8.60639 14.0031 7.87588C14.9331 7.43347 15.6286 6.8954 16.0596 6.29753C16.9881 6.75553 17.6091 7.31588 17.8416 7.89306C16.9939 9.33313 14.048 10.3834 10.7133 10.3834Z" fill="#2A364A"/>
</svg>
