<svg width="23" height="20" viewBox="0 0 23 20" fill="none" xmlns="http://www.w3.org/2000/svg">
<path fill-rule="evenodd" clip-rule="evenodd" d="M22.9218 11.8866C22.9171 11.6245 22.7015 11.4145 22.4375 11.4145C22.1667 11.4145 21.949 11.6356 21.9543 11.9044C21.9827 13.4143 21.9264 14.8442 21.7895 16.0534C19.622 17.7216 16.5865 18.7102 14.479 18.9735L13.4089 16.129C14.8916 15.8986 17.1492 15.2534 18.9807 13.4623C19.1381 13.3085 19.1697 13.0683 19.0572 12.8794C18.9451 12.6909 18.718 12.6023 18.5061 12.6648C18.2898 12.7284 18.0021 12.8401 17.6969 12.9585C17.3527 13.0919 16.9623 13.2433 16.7427 13.2953C14.9922 13.7083 13.2177 13.9179 11.4679 13.9179C11.467 13.9179 11.4642 13.9179 11.4642 13.9179H11.4602C9.71074 13.9179 7.93617 13.7083 6.18539 13.2953C5.96578 13.2433 5.57573 13.0919 5.23121 12.9585C4.93816 12.8447 4.66025 12.7371 4.44707 12.6721C4.24855 12.6119 4.02672 12.6697 3.90181 12.8339C3.75437 13.028 3.77729 13.2959 3.94773 13.4626C5.78575 15.2598 8.03959 15.9066 9.51928 16.1373L8.44978 18.9732C6.34251 18.7102 3.30643 17.7216 1.13927 16.0531C0.686092 12.052 1.11175 5.63384 2.60064 1.88778C3.96534 1.27266 5.97014 1.09762 7.85313 1.02321L4.85044 2.40549C4.62242 2.51037 4.51432 2.77211 4.60204 3.00589C4.68999 3.23959 4.94466 3.36667 5.186 3.29746C7.27004 2.69982 9.38231 2.39652 11.4642 2.39652C13.5461 2.39652 15.6587 2.69982 17.7424 3.29746C17.9838 3.36636 18.2384 3.23959 18.3264 3.00589C18.4144 2.77211 18.3063 2.51069 18.078 2.40549L15.0753 1.02321C16.9583 1.09762 18.9631 1.27266 20.3278 1.88809C21.1422 3.93691 21.6382 6.7851 21.8467 9.59974C21.8654 9.85037 22.076 10.0438 22.3291 10.0438H22.331C22.6122 10.0438 22.8344 9.80612 22.8139 9.52746C22.5937 6.54549 22.0515 3.53061 21.1482 1.3551C21.1041 1.24864 21.0224 1.16163 20.9186 1.1099C19.0068 0.161398 16.015 0.0850983 13.6108 0.0236022C13.3168 0.0158857 13.0324 0.00879904 12.7616 0.000216359C12.5336 -0.00655529 12.3314 0.146279 12.2784 0.367145C12.2257 0.587697 12.3366 0.814941 12.5442 0.910295L14.0077 1.58423C13.1579 1.48951 12.3087 1.44148 11.4642 1.44148C10.6194 1.44148 9.77022 1.48919 8.92041 1.58423L10.3839 0.910295C10.5915 0.814941 10.7024 0.587697 10.6497 0.367145C10.5967 0.146279 10.3951 -0.00624033 10.1665 0.000216359C9.89569 0.00879904 9.6116 0.0158857 9.31728 0.0236022C6.91314 0.0847833 3.92108 0.161083 2.00954 1.1099C1.90573 1.16163 1.82427 1.24864 1.78002 1.3551C0.12965 5.32959 -0.315519 12.1068 0.207374 16.3627C0.222602 16.4861 0.285495 16.5987 0.38273 16.6768C2.85285 18.6536 6.35305 19.7519 8.72618 19.9633C8.74069 19.9649 8.75529 19.9651 8.76948 19.9651C8.96839 19.9651 9.14906 19.8431 9.21965 19.6551L10.6321 15.9085C10.7015 15.7249 10.6516 15.5127 10.4939 15.3773C10.4164 15.3112 10.3176 15.2752 10.216 15.2647C9.47495 15.1897 8.35286 14.9919 7.17058 14.4776C8.59976 14.74 10.0376 14.8729 11.4605 14.8729H11.4683C12.8847 14.8729 14.316 14.7412 15.7386 14.481C14.5654 14.9857 13.4513 15.1814 12.713 15.2564C12.6114 15.2666 12.5126 15.3026 12.4351 15.3686C12.2768 15.5037 12.2269 15.716 12.296 15.8998L13.7088 19.6548C13.7794 19.8427 13.9597 19.9654 14.1589 19.9654C14.1731 19.9654 14.1877 19.9645 14.202 19.9633C16.5754 19.7519 20.0756 18.6536 22.5454 16.6768C22.6429 16.599 22.7058 16.4864 22.721 16.3631C22.8815 15.0571 22.9506 13.5134 22.9218 11.8866Z" fill="#2A364A"/>
<path fill-rule="evenodd" clip-rule="evenodd" d="M6.97602 5.51541C5.29686 5.51541 3.93066 6.8721 3.93066 8.53919C3.93066 10.2063 5.29686 11.5627 6.97602 11.5627C8.65518 11.5627 10.0215 10.2063 10.0215 8.53919C10.0215 6.8721 8.65518 5.51541 6.97602 5.51541Z" fill="#2A364A"/>
<path fill-rule="evenodd" clip-rule="evenodd" d="M15.9522 5.51541C14.273 5.51541 12.9067 6.8721 12.9067 8.53919C12.9067 10.2063 14.273 11.5627 15.9522 11.5627C17.6313 11.5627 18.9975 10.2063 18.9975 8.53919C18.9975 6.8721 17.6313 5.51541 15.9522 5.51541Z" fill="#2A364A"/>
</svg>
