<svg width="25" height="21" viewBox="0 0 25 21" fill="none" xmlns="http://www.w3.org/2000/svg">
<mask id="mask0" mask-type="alpha" maskUnits="userSpaceOnUse" x="0" y="0" width="25" height="21">
<path fill-rule="evenodd" clip-rule="evenodd" d="M0.00439453 0.00646973H24.952V20.9717H0.00439453V0.00646973Z" fill="white"/>
</mask>
<g mask="url(#mask0)">
<path fill-rule="evenodd" clip-rule="evenodd" d="M22.912 5.75407C23.182 4.94981 23.3172 4.11621 23.3172 3.25271C23.3172 2.10098 23.0619 1.01913 22.552 0.00646973C21.4827 0.00646973 20.5379 0.200407 19.7181 0.587238C18.8985 0.974556 17.9638 1.57486 16.9145 2.38893C15.5952 2.07142 14.1952 1.91246 12.7161 1.91246C11.0964 1.91246 9.55168 2.0863 8.08249 2.43371C7.01296 1.59983 6.06807 0.987072 5.24853 0.594817C4.42871 0.202632 3.47899 0.00646973 2.3993 0.00646973C1.88936 1.01913 1.63473 2.10125 1.63473 3.25271C1.63473 4.12622 1.76961 4.96991 2.03957 5.78397C0.679762 7.36238 0 9.32762 0 11.6805C0 13.7453 0.309664 15.3879 0.929762 16.6091C1.25966 17.2539 1.68943 17.8249 2.21926 18.3215C2.74888 18.8175 3.35371 19.2197 4.03375 19.5278C4.71352 19.8352 5.39818 20.0908 6.0881 20.2943C6.77794 20.4977 7.54006 20.6465 8.37493 20.7406C9.20952 20.8353 9.94671 20.8973 10.5866 20.9272C11.2263 20.9568 11.9359 20.9717 12.7158 20.9717C13.6355 20.9717 14.4698 20.9492 15.2199 20.9049C15.97 20.8604 16.827 20.7509 17.7917 20.5776C18.7563 20.4037 19.6062 20.1677 20.341 19.87C21.0757 19.5723 21.7806 19.1453 22.4555 18.5895C23.1303 18.0335 23.6574 17.3735 24.0374 16.6091C24.6468 15.3781 24.9518 13.7353 24.9518 11.6805C24.9516 9.31781 24.2718 7.34256 22.912 5.75407ZM21.1132 16.5863C20.7931 17.2368 20.3883 17.7475 19.8986 18.1202C19.4084 18.4926 18.799 18.7903 18.0691 19.0138C17.3391 19.2371 16.6396 19.3835 15.97 19.4527C15.2997 19.5223 14.5555 19.5568 13.7354 19.5568H11.2162C10.3964 19.5568 9.65154 19.5223 8.98193 19.4527C8.31197 19.3835 7.61226 19.2371 6.88242 19.0138C6.15287 18.7903 5.54314 18.4926 5.05322 18.1202C4.56331 17.7475 4.15847 17.2368 3.83866 16.5863C3.51863 15.936 3.35861 15.1744 3.35861 14.3009C3.35861 13.1095 3.70357 12.0966 4.39342 11.2632C5.08333 10.4294 6.01807 10.0127 7.19727 10.0127C7.62759 10.0127 8.60224 10.1167 10.1215 10.3253C10.8314 10.4342 11.6162 10.4888 12.4756 10.4888C13.3357 10.4888 14.1205 10.4345 14.83 10.3253C16.3699 10.1167 17.3443 10.0127 17.7543 10.0127C18.9338 10.0127 19.8683 10.4296 20.5581 11.2632C21.248 12.0971 21.5927 13.1095 21.5927 14.3009C21.5927 15.1744 21.4327 15.9366 21.1132 16.5863Z" fill="#2A364A"/>
</g>
<path fill-rule="evenodd" clip-rule="evenodd" d="M8.76433 11.9483C8.45935 11.6106 8.09717 11.4417 7.67728 11.4417C7.25711 11.4417 6.89493 11.6106 6.58989 11.9483C6.28519 12.2856 6.07021 12.6629 5.94514 13.0793C5.82014 13.4968 5.75781 13.9035 5.75781 14.3009C5.75781 14.6977 5.82014 15.1046 5.94514 15.5221C6.06993 15.9387 6.28491 16.3158 6.58989 16.6531C6.89493 16.9907 7.25711 17.1597 7.67728 17.1597C8.09717 17.1597 8.45963 16.9905 8.76433 16.6531C9.06909 16.3158 9.28407 15.9387 9.40907 15.5221C9.53407 15.1046 9.59647 14.6977 9.59647 14.3009C9.59647 13.904 9.53407 13.4968 9.40907 13.0793C9.28407 12.6629 9.06937 12.2859 8.76433 11.9483Z" fill="#2A364A"/>
<path fill-rule="evenodd" clip-rule="evenodd" d="M18.3615 11.9483C18.0568 11.6106 17.6943 11.4417 17.2747 11.4417C16.8548 11.4417 16.4924 11.6106 16.1873 11.9483C15.8826 12.2856 15.6676 12.6629 15.5429 13.0793C15.4176 13.4968 15.355 13.9035 15.355 14.3009C15.355 14.6977 15.4176 15.1046 15.5429 15.5221C15.6676 15.9387 15.8826 16.3158 16.1873 16.6531C16.4924 16.9907 16.8548 17.1597 17.2747 17.1597C17.6943 17.1597 18.0568 16.9905 18.3615 16.6531C18.6663 16.3158 18.8812 15.9387 19.0065 15.5221C19.1315 15.1046 19.1939 14.6977 19.1939 14.3009C19.1939 13.904 19.1315 13.4968 19.0065 13.0793C18.8815 12.6629 18.6663 12.2859 18.3615 11.9483Z" fill="#2A364A"/>
</svg>
