<svg width="25" height="26" viewBox="0 0 25 26" fill="none" xmlns="http://www.w3.org/2000/svg">
<path d="M19.2922 25.5561H5.18394C4.95536 25.5561 4.76637 25.378 4.75389 25.1512L3.52701 2.58526C3.52055 2.46798 3.56317 2.35327 3.64453 2.26767C3.72546 2.18249 3.83868 2.13412 3.95706 2.13412H20.5191C20.637 2.13412 20.7503 2.18249 20.8316 2.26767C20.913 2.35327 20.9556 2.46798 20.9492 2.58526L19.7218 25.1512C19.7094 25.3784 19.5208 25.5561 19.2922 25.5561ZM5.59161 24.7H18.8841L20.0645 2.99017H4.41165L5.59161 24.7Z" fill="#231F20"/>
<path d="M14.9984 2.99061H9.47785C9.23979 2.99061 9.04736 2.79885 9.04736 2.56258V0.428025C9.04736 0.191755 9.23979 0 9.47785 0H14.9984C15.2364 0 15.4289 0.191755 15.4289 0.428025V2.56258C15.4289 2.79885 15.2364 2.99061 14.9984 2.99061ZM9.90833 2.13456H14.5679V0.856049H9.90833V2.13456Z" fill="#231F20"/>
<path d="M24.046 2.9906H0.430485C0.192427 2.9906 0 2.79885 0 2.56258C0 2.32631 0.192427 2.13455 0.430485 2.13455H24.0456C24.2836 2.13455 24.4761 2.32631 24.4761 2.56258C24.4761 2.79885 24.2836 2.9906 24.046 2.9906Z" fill="#231F20"/>
<path d="M8.30158 21.3379C8.07558 21.3379 7.88573 21.1624 7.87239 20.9351L6.95244 5.53563C6.93824 5.29979 7.11947 5.09734 7.35624 5.08321C7.60032 5.06652 7.79748 5.24929 7.81169 5.48513L8.73163 20.8846C8.74584 21.1204 8.56461 21.3229 8.32784 21.337C8.3188 21.3375 8.31019 21.3379 8.30158 21.3379Z" fill="#231F20"/>
<path d="M12.494 21.7954C12.2559 21.7954 12.0635 21.6037 12.0635 21.3674V5.51039C12.0635 5.27412 12.2559 5.08237 12.494 5.08237C12.732 5.08237 12.9244 5.27412 12.9244 5.51039V21.3674C12.9244 21.6037 12.7316 21.7954 12.494 21.7954Z" fill="#231F20"/>
<path d="M16.5837 21.3379C16.5747 21.3379 16.5665 21.3379 16.5575 21.337C16.3203 21.3229 16.139 21.1204 16.1537 20.8846L17.074 5.48513C17.0878 5.24886 17.2953 5.06267 17.5295 5.08322C17.7667 5.09734 17.9479 5.2998 17.9333 5.53564L17.0129 20.9351C16.9991 21.1624 16.8097 21.3379 16.5837 21.3379Z" fill="#231F20"/>
</svg>
