<svg width="23" height="19" viewBox="0 0 23 19" fill="none" xmlns="http://www.w3.org/2000/svg">
<path fill-rule="evenodd" clip-rule="evenodd" d="M23 2.24801C22.1534 2.62944 21.2452 2.88822 20.2908 3.00364C21.2652 2.41026 22.0112 1.46888 22.3646 0.350759C21.4507 0.900365 20.4417 1.29928 19.3667 1.51566C18.5057 0.58166 17.2813 0 15.9231 0C13.3175 0 11.2046 2.14848 11.2046 4.79704C11.2046 5.17266 11.2463 5.53953 11.3268 5.89049C7.40595 5.69001 3.92944 3.77982 1.60248 0.876872C1.19575 1.58435 0.964397 2.40868 0.964397 3.28872C0.964397 4.95348 1.79806 6.42236 3.06271 7.28175C2.28953 7.25546 1.5622 7.03928 0.925662 6.67956V6.73949C0.925662 9.06358 2.5526 11.0032 4.70984 11.4445C4.31463 11.5528 3.89772 11.6128 3.46654 11.6128C3.16197 11.6128 2.86738 11.5821 2.57846 11.5236C3.17916 13.431 4.92105 14.8181 6.98493 14.8561C5.37088 16.1425 3.33575 16.9069 1.1253 16.9069C0.744569 16.9069 0.369353 16.8834 0 16.841C2.08834 18.2047 4.56753 19 7.23212 19C15.9115 19 20.6559 11.6888 20.6559 5.34802L20.6402 4.72697C21.567 4.05455 22.3691 3.20968 23 2.24801Z" fill="#2A364A"/>
</svg>
